<svg xmlns="http://www.w3.org/2000/svg" width="34" height="34" viewBox="0 0 34 34">
    <path fill="#00A5FF" fill-rule="evenodd" d="M30.86 6.676c-.591.608-5.211 5.175-13.736 13.573l-.653.643c-.976.302-3.317 1.054-5.086 1.626a406.31 406.31 0 0 0 1.557-5.229C14.764 15.47 26.81 3.443 27.267 2.991c.09-.09.903-.87 1.904-.87.569 0 1.117.26 1.672.793.666.638 1.008 1.251 1.018 1.824.01.59-.326 1.24-1 1.938zm1.45-5.293C31.355.466 30.298 0 29.171 0c-1.764 0-3.05 1.14-3.401 1.487-.496.49-14.555 14.53-14.555 14.53a.909.909 0 0 0-.232.402c-.381 1.408-2.29 7.656-2.308 7.718a.895.895 0 0 0 1.124 1.121c.065-.022 6.513-2.107 7.574-2.424a.893.893 0 0 0 .372-.22c.67-.66 13.593-13.383 14.64-14.463 1.08-1.116 1.618-2.276 1.597-3.45-.02-1.16-.583-2.277-1.672-3.318zm-5.795 30.454H2.121V5.322h14.902l2.144-2.067-.055-.054H2.122C.95 3.201 0 4.151 0 5.322v26.515c0 1.171.95 2.122 2.121 2.122h24.394c1.172 0 2.121-.95 2.121-2.122V16.304l-2.12 2.024v13.51z"/>
</svg>
