<svg xmlns="http://www.w3.org/2000/svg" width="24" height="35" viewBox="0 0 24 35">
    <path fill="#00A5FF" fill-rule="evenodd" d="M14.383 0c-.06 0-.119.002-.177.007-.386.03-.642.16-.946.364a2.158 2.158 0 0 0-.571.555L.42 17.165a2.179 2.179 0 0 0-.184 2.273 2.202 2.202 0 0 0 1.947 1.203l6.32.046-1.987 11.707a2.188 2.188 0 0 0 1.292 2.413c.281.12.577.179.87.179.687 0 1.253-.322 1.677-.904L22.64 16.486a2.181 2.181 0 0 0 .184-2.274 2.203 2.203 0 0 0-1.947-1.202l-6.32-.01 1.965-10.295a2.192 2.192 0 0 0-2.06-2.704h-.08m0 2.189l-2.47 12.98 8.949.03L8.678 32.796l2.47-14.28-8.949-.03L14.381 2.19m0 0h.006"/>
</svg>
