<svg xmlns="http://www.w3.org/2000/svg" width="34" height="34" viewBox="0 0 34 34">
    <path fill="#00A5FF" fill-rule="evenodd" d="M5.81 13.104L2.234 16.68a.405.405 0 0 0 .002.57L16.7 31.712c.202.2.361.203.57-.002l14.46-14.463a.403.403 0 0 0 0-.569l-5.1-5.098a1.058 1.058 0 0 1-.206-1.211 1.054 1.054 0 0 1 1.078-.592l.161.021c.09.013.178.027.272.027a3.713 3.713 0 0 0 3.71-3.71 3.716 3.716 0 0 0-3.71-3.712 3.716 3.716 0 0 0-3.71 3.713c0 .085.013.167.025.25l.022.19a1.06 1.06 0 0 1-1.804.863l-5.2-5.205c-.205-.2-.364-.203-.57.002l-3.22 3.22c2.76.683 4.62 3.18 4.62 6.148 0 3.49-2.649 6.368-6.141 6.368-2.968 0-5.464-2.09-6.147-4.848M16.983 33.95c-.673 0-1.305-.26-1.782-.735L.734 18.747a2.532 2.532 0 0 1-.002-3.565l5.3-5.299a1.06 1.06 0 0 1 1.794.936 4.443 4.443 0 0 0-.079.765c0 2.32 1.888 4.247 4.21 4.247s4.02-1.926 4.02-4.247c0-2.322-1.698-4.211-4.02-4.211-.218 0-.46.024-.764.078a1.06 1.06 0 0 1-.935-1.793L15.2.714c.957-.952 2.611-.95 3.565-.002l3.617 3.62a5.844 5.844 0 0 1 5.553-4.05 5.84 5.84 0 0 1 5.832 5.834 5.84 5.84 0 0 1-4.05 5.552l3.514 3.512a2.53 2.53 0 0 1 0 3.565L18.767 33.212a2.511 2.511 0 0 1-1.784.737"/>
</svg>
