<svg xmlns="http://www.w3.org/2000/svg" width="20" height="35" viewBox="0 0 20 35">
    <path fill="#00A5FF" fill-rule="evenodd" d="M12.165 3.281H7.744a1.1 1.1 0 0 0-1.106 1.094A1.1 1.1 0 0 0 7.744 5.47h4.42a1.1 1.1 0 0 0 1.106-1.094 1.1 1.1 0 0 0-1.105-1.094zM9.955 27.35c-1.22 0-2.207.978-2.207 2.182 0 1.205.987 2.183 2.206 2.183a2.194 2.194 0 0 0 2.205-2.183 2.194 2.194 0 0 0-2.205-2.182zm7.74 4.37a1.1 1.1 0 0 1-1.106 1.094H3.316a1.1 1.1 0 0 1-1.105-1.094V3.281a1.1 1.1 0 0 1 1.105-1.093h13.273a1.1 1.1 0 0 1 1.105 1.093V31.72zM16.588 0H3.316C1.485 0 0 1.47 0 3.281V31.72C0 33.531 1.485 35 3.316 35h13.273c1.832 0 3.316-1.469 3.316-3.281V3.281c0-1.812-1.484-3.28-3.316-3.28z"/>
</svg>
