<svg xmlns="http://www.w3.org/2000/svg" width="34" height="34" viewBox="0 0 34 34">
    <path fill="#00A5FF" fill-rule="evenodd" d="M17 21.25A4.255 4.255 0 0 1 12.75 17 4.254 4.254 0 0 1 17 12.75 4.254 4.254 0 0 1 21.25 17 4.255 4.255 0 0 1 17 21.25zm.015-10.636c-3.529 0-6.4 2.866-6.4 6.386s2.871 6.385 6.4 6.385c3.527 0 6.4-2.865 6.4-6.385 0-3.52-2.873-6.386-6.4-6.386zm14.861 7.384c-.09.065-.26.154-.476.204l-3.94.984-.365 1.115a10.603 10.603 0 0 1-.636 1.519l-.533 1.047 2.081 3.471c.133.213.196.403.215.515l-1.398 1.396a1.646 1.646 0 0 1-.363-.149l-3.497-2.23-1.087.562c-.524.272-1.062.497-1.597.67l-1.158.374-.876 3.956c-.04.211-.154.381-.23.443h-1.913a1.378 1.378 0 0 1-.203-.475l-.978-3.912-1.132-.36a10.434 10.434 0 0 1-1.73-.726l-1.094-.577-3.498 2.23a.8.8 0 0 1-.434.151L5.64 26.851c.019-.111.076-.293.192-.479l2.174-3.62-.518-1.04c-.242-.49-.433-.952-.582-1.409l-.364-1.116-3.902-.976a1.5 1.5 0 0 1-.515-.213v-1.975h.004c.036 0 .21-.124.356-.15l4.009-.887.368-1.172c.15-.477.354-.975.624-1.52l.518-1.042-2.15-3.583a1.487 1.487 0 0 1-.214-.515l1.397-1.397c.135.043.288.099.36.15l3.564 2.27 1.09-.576c.562-.295 1.14-.538 1.724-.724l1.13-.36.969-3.877a1.52 1.52 0 0 1 .213-.515h1.975c-.014.022.123.207.151.36l.892 4.031 1.157.374c.543.176 1.088.404 1.618.68l1.087.565 3.425-2.182a.796.796 0 0 1 .435-.153l1.395 1.356c-.02.11-.078.292-.193.48l-2.104 3.501.536 1.05c.29.566.512 1.098.675 1.625l.368 1.173 3.927.87c.238.045.423.182.462.257l-.017 1.886zm.016-4.216l-2.728-.606c-.212-.68-.49-1.33-.81-1.956l1.476-2.457c.551-.881.828-2.176 0-3.006l-1.504-1.503c-.829-.83-2.229-.68-3.075-.093L22.86 5.684c-.62-.323-1.27-.598-1.944-.816l-.613-2.76C20.122 1.096 19.236 0 18.063 0h-2.126c-1.173 0-1.892 1.113-2.125 2.125l-.682 2.726c-.719.23-1.41.524-2.068.87l-2.453-1.56c-.844-.588-2.246-.736-3.076.093L4.031 5.757c-.83.83-.551 2.125 0 3.006l1.552 2.587a12.72 12.72 0 0 0-.749 1.826l-2.726.606C1.095 13.965 0 14.85 0 16.022v2.126c0 1.174 1.112 1.892 2.125 2.125l2.761.69c.19.585.429 1.148.7 1.692l-1.555 2.59c-.551.88-.829 2.175 0 3.005l1.503 1.502c.83.83 2.23.681 3.076.095l2.457-1.566c.663.35 1.357.646 2.081.874l.681 2.72c.232 1.013.951 2.125 2.125 2.125h2.125c1.173 0 2.058-1.095 2.241-2.108l.613-2.768a12.596 12.596 0 0 0 1.921-.805l2.397 1.528c.846.586 2.246.735 3.075-.095l1.504-1.502c.828-.83.551-2.125 0-3.005l-1.476-2.462c.296-.582.553-1.19.76-1.82l2.76-.69C32.888 20.04 34 19.322 34 18.148v-2.125c0-1.173-1.096-2.058-2.108-2.241z"/>
</svg>
