<svg xmlns="http://www.w3.org/2000/svg" xmlns:xlink="http://www.w3.org/1999/xlink" width="250" height="26" viewBox="0 0 250 26">
    <defs>
        <path id="a" d="M.008.054h122.7v49.925H.008z"/>
    </defs>
    <g fill="none" fill-rule="evenodd">
        <g transform="translate(63.636 -28)">
            <mask id="b" fill="#fff">
                <use xlink:href="#a"/>
            </mask>
            <path fill="#1E81DF" d="M50.28 36.924c-.025.41-.097.825-.065 1.23.052.657-.256.805-.825.772a16.824 16.824 0 0 0-1.906-.01c-1.641.09-2.366.87-2.373 2.537-.009 2.355-.004 4.71-.005 7.065 0 1.085 0 1.087-1.1 1.084-.679-.002-1.358-.013-2.037-.012-.482.001-.706-.19-.701-.72.021-2.532-.061-5.068.05-7.595.057-1.325.198-2.698 1.188-3.783.836-.915 1.89-1.46 3.046-1.525 2.597-.147 5.204-.139 7.807-.139.281 0 .704.296.823.564 1.052 2.374 2.052 4.772 3.064 7.164.161.38.311.766.55 1.354.571-1.183 1.055-2.18 1.535-3.179.83-1.725 1.657-3.452 2.489-5.176.427-.887 1.18-1.065 2.08-1.065.866-.001 1.446.413 1.78 1.13.858 1.837 1.65 3.705 2.477 5.557.383.855.79 1.7 1.26 2.708.53-1.173 1.002-2.208 1.469-3.245.804-1.784 1.593-3.576 2.423-5.348.098-.208.408-.427.632-.442.895-.057 1.796-.047 2.694-.034.173.002.345.13.552.215-1.447 3.245-2.86 6.422-4.28 9.596-.485 1.086-.964 2.177-1.492 3.242-.75 1.512-3.192 1.384-3.803.022-.603-1.344-1.255-2.664-1.873-4.001-.61-1.32-1.2-2.648-1.809-3.967-.057-.124-.182-.215-.276-.32-.117.111-.278.201-.344.339-1.175 2.464-2.34 4.934-3.506 7.403-.686 1.451-1.731 1.937-3.154 1.452-.85-.289-1.102-1.079-1.413-1.802-.889-2.064-1.76-4.134-2.644-6.2-.657-1.54-1.32-3.077-1.983-4.614-.041-.095-.098-.183-.147-.274l-.183.017M9.413 46.212v.007h4.204l.198-.003c1.865.016 2.388-.96 2.46-2.423.094-1.882.154-3.784-.008-5.656-.152-1.765-.325-2.225-2.345-2.454a.568.568 0 0 0-.066-.004c-3.087-.002-6.174 0-9.261-.012-.505-.002-.682.19-.679.71a732.69 732.69 0 0 1 0 9.188c-.004.5.16.66.637.654 1.62-.018 3.24-.007 4.86-.007zM.01 40.87c0-2.621.01-5.242-.01-7.864-.003-.505.148-.753.66-.75 4.842.028 9.685.032 14.527.09 1.257.015 2.478.317 3.477 1.173.824.706 1.287 1.619 1.31 2.723.059 2.748.143 5.498.127 8.246-.006 1.048-.111 2.125-.726 3.06-.897 1.366-2.258 1.893-3.757 1.958-2.429.106-4.863.074-7.296.087-2.3.012-4.601.006-6.902.007-.219 0-.438-.012-.657-.005-.546.018-.766-.205-.76-.795.027-2.643.012-5.287.012-7.93H.01z" mask="url(#b)"/>
        </g>
        <path fill="#000" d="M223.37 10.543v.778c0 2.816.003 5.632-.001 8.448-.003.975-.126 1.088-1.098 1.088-.68 0-1.36.004-2.04.005-.707 0-.9-.172-.901-.877-.01-3.012-.01-6.024-.012-9.036 0-2.422.003-4.845.001-7.267 0-.875.108-.991.965-.992.746 0 1.493.023 2.237-.007.635-.025.866.266.856.863-.017.917.02 1.835-.018 2.75-.025.57.164.762.749.754 2.236-.029 4.476-.072 6.71.013 1.252.048 2.527.22 3.735.547 1.535.416 2.351 1.589 2.66 3.127.527 2.618.144 5.264.258 7.894.02.457-.022.918.01 1.375.042.638-.28.863-.868.858-.767-.007-1.535.006-2.303-.005-.735-.011-.883-.153-.886-.892-.011-2.423-.006-4.846-.018-7.268-.004-.9-.25-1.674-1.203-2.02-.14-.051-.283-.13-.424-.13-2.762-.008-5.526-.006-8.409-.006M185.945 12.825h9.943c0-.49.002-.938-.001-1.387-.003-.84-.164-1.076-1.024-1.084-2.537-.023-5.074.006-7.611.024-.894.006-1.132.558-1.29 1.213-.093.384-.017.806-.017 1.234zm-.002 2.632c0 .4-.007.699.001.998.02.74.397 1.198 1.153 1.227 1.543.06 3.089.085 4.633.063.662-.01.92.18.85.845-.055.534-.03 1.08-.005 1.618.02.442-.185.669-.612.655-2.181-.07-4.397.049-6.532-.299-1.873-.305-3.123-1.251-3.406-3.572-.273-2.24-.324-4.518.144-6.766.266-1.283 1.094-2.1 2.302-2.486.864-.276 1.795-.473 2.7-.485 3.022-.041 6.048-.049 9.067.064 1.58.06 2.946.702 3.519 2.325.14.4.213.84.223 1.265.029 1.273-.01 2.548.02 3.821.013.575-.22.738-.785.735-4.13-.017-8.26-.009-12.389-.008h-.883z"/>
        <path fill="#1E81DF" d="M99.724 14.918c-.257-.05-.342-.08-.426-.08-3.125 0-6.25-.002-9.374.012-.665.003-.933.483-1.023 1.07-.053.344-.043.703-.029 1.053.033.796.428 1.232 1.207 1.236 2.63.014 5.259.006 7.888-.016.704-.006 1.29-.344 1.468-1.058.175-.706.196-1.452.29-2.217zm-.146-2.658c.16-1.439-.343-2.127-1.649-2.212-1.16-.076-2.328-.068-3.492-.056-.47.005-.677-.138-.65-.637.028-.527-.038-1.062.032-1.58.026-.197.317-.51.485-.508 1.79.006 3.62-.167 5.355.165 2.271.435 3.486 1.349 3.689 4.188.141 1.982.017 4-.16 5.985-.162 1.822-1.732 3.165-3.7 3.198-3.729.064-7.461.102-11.187-.017-1.663-.053-3.115-1.115-3.073-3.12.017-.791-.012-1.584.02-2.375.057-1.404.938-2.478 2.318-2.64a50.96 50.96 0 0 1 4.757-.318c2.133-.05 4.27-.005 6.404-.007.277 0 .553-.042.851-.066z"/>
        <path fill="#000" d="M212.176 17.429c1.709 0 3.419.022 5.126-.011.652-.013.898.228.879.824-.022.666-.008 1.333-.018 2-.005.412-.206.626-.665.622-3.686-.036-7.373-.047-11.06-.105-1.097-.017-2.174-.22-3.132-.795-.945-.567-1.557-1.323-1.823-2.402-.488-1.986-.367-3.992-.2-5.97.201-2.387 1.274-3.81 4.108-4.093 2.76-.276 5.56-.198 8.343-.258 1.191-.025 2.383.008 3.575-.013.594-.01.868.191.834.792a17.805 17.805 0 0 0-.001 1.935c.028.558-.193.746-.782.742a768.86 768.86 0 0 0-9.578 0 5.208 5.208 0 0 0-1.356.216c-.873.245-1.108.934-1.132 1.701-.028.903-.008 1.807-.007 2.711.003 1.364.704 2.073 2.1 2.086 1.597.015 3.192.004 4.79.004v.014"/>
        <path fill="#1E81DF" d="M146.618 16.024c0-1.274-.066-2.553.024-3.82.059-.836.284-1.673.54-2.475.35-1.102 1.208-1.742 2.234-2.026.928-.258 1.903-.44 2.86-.456 2.391-.038 4.787-.029 7.174.092 1.49.075 2.862.695 3.54 2.162.395.857.567 1.889.598 2.85.083 2.612.03 5.228.047 7.842.004.495-.211.668-.653.658-.762-.017-1.525-.046-2.287-.024-.5.014-.682-.204-.681-.697.006-2.065.014-4.13-.01-6.194a10.996 10.996 0 0 0-.19-1.955c-.164-.845-.698-1.37-1.537-1.387a151.53 151.53 0 0 0-6.407.015c-.736.017-1.441.78-1.46 1.558-.06 2.436-.073 4.873-.092 7.31-.012 1.408-.002 1.407-1.369 1.38-.55-.01-1.1-.022-1.651-.013-.495.01-.72-.17-.706-.734.033-1.361.01-2.724.01-4.086h.016"/>
        <path fill="#000" d="M173.33 3.826l7.61.001c.712 0 .858.147.867.873.008.601-.019 1.204.009 1.805.028.603-.206.853-.827.845-1.848-.024-3.698.013-5.546-.022-.574-.011-.73.165-.727.728.022 3.978.012 7.956.011 11.933 0 .762-.094.859-.838.865-.752.007-1.504.01-2.256.01-.785 0-.898-.101-.9-.887-.005-3.827-.004-7.654-.005-11.481 0-1.155.002-1.155-1.143-1.155-1.333 0-2.666-.009-3.999.005-.553.005-.844-.18-.81-.788.034-.643.021-1.29.002-1.935-.017-.578.24-.808.813-.805 2.58.013 5.16.006 7.74.006v.002"/>
        <path fill="#1E81DF" d="M144.955 14.028c0 1.982-.017 3.964.011 5.945.008.56-.204.77-.722.764-.876-.01-1.753-.018-2.63-.01-.421.004-.586-.19-.586-.607.004-4.097.003-8.195-.001-12.292 0-.376.126-.582.535-.577.92.01 1.84.003 2.761-.011.543-.009.646.305.643.775-.012 2.004-.005 4.009-.005 6.013h-.006"/>
        <path fill="#000" d="M246.994 7.506c1.041-.353 2.402.145 2.774 1.36.327 1.063.237 2.405-.914 3.046a2.566 2.566 0 0 1-1.178.312 436.69 436.69 0 0 1-7.885.008c-.99-.008-1.774-.422-2.137-1.427-.332-.915-.06-2.27.666-2.803.417-.307.968-.449 1.479-.59.401-.113.683.087.69.55.009.437.117.959-.518 1.038-.57.07-.922.334-.86.931.064.635.54.704 1.07.701 2.366-.012 4.732-.01 7.098 0 .47 0 .892-.038 1.017-.6.126-.57-.18-.816-.663-1.033-.624-.281-.74-.862-.639-1.493M243.73 20.863h-5.318c-.685 0-.898-.179-.912-.741-.012-.516.283-.708.88-.706 3.046.011 6.091-.007 9.137.016.61.005.913-.114.815-.667-.03-.168-.004-.343-.003-.515.005-.756.076-.796.973-.795.5 0 .703.173.698.58-.01.707-.013 1.415 0 2.121.01.519-.292.709-.883.705-1.795-.012-3.592-.004-5.387-.004v.006M248.332 14.853c0-.568.002-.994-.001-1.42-.003-.509.397-.525.838-.524.44 0 .832.006.824.527-.012.68.01 1.36.007 2.039-.003.741-.124.844-.98.843l-9.595-.012c-.385 0-.771-.004-1.157.002-.6.01-.773-.272-.768-.74.007-.464.162-.73.777-.728 2.903.015 5.806.01 8.71.013h1.345"/>
        <g fill="#1E81DF">
            <path d="M36.214 10.034v-.001c.534 0 1.07-.01 1.603.003.299.007.406-.117.403-.415-.009-1.065-.009-2.131.003-3.196.003-.308-.137-.427-.415-.427-1.05-.001-2.102-.016-3.152.019-.142.005-.39.265-.394.413-.033 1.064-.013 2.13-.016 3.195-.001.296.122.42.419.413.516-.013 1.033-.004 1.55-.004zM38.091.463h11.09c.789 0 .801.014.801.813l.002 13.25c0 .81 0 .81-.805.81h-9.697c-.728 0-.75-.022-.75-.766-.002-.652-.01-1.304.008-1.955.01-.402-.162-.542-.546-.54-1.625.01-3.25.014-4.875-.002-.445-.004-.596.167-.577.613.03.687-.004 1.375.01 2.063.008.407-.14.587-.563.594-.41.005-.59-.13-.575-.56.017-.487-.039-.979-.002-1.464.035-.444-.142-.583-.546-.581-1.411.007-2.822.003-4.233 0-.644-.002-.872-.309-.625-.92.059-.146.354-.272.542-.275 1.624-.021 3.25-.027 4.875-.004.475.007.662-.124.656-.636-.022-1.919-.016-3.838.002-5.756.005-.506-.15-.689-.68-.676-1.606.037-3.213.006-4.82.021-.46.004-.636-.175-.622-.646.027-.922.04-1.847.003-2.769-.02-.5.174-.618.623-.617 3.768.011 7.536.006 11.304.006V.463zM16.536 6.03c-1.268 0-2.509-.01-3.749.02-.096.002-.257.277-.264.432-.03.613-.023 1.23-.01 1.844.013.538-.147 1.299.132 1.555.317.29 1.037.145 1.582.157.76.017 1.52.004 2.309.004V6.03zM12.75.462c3.767 0 7.535.007 11.302-.009.493-.002.664.156.646.656a38.45 38.45 0 0 0 0 2.714c.02.54-.189.678-.695.67-1.624-.027-3.25.007-4.873-.015-.478-.006-.63.183-.628.637a472.98 472.98 0 0 1-.007 5.863c-.004.442.195.553.587.55 1.642-.01 3.285 0 4.928 0 .6 0 .932.497.64 1.021-.066.12-.328.178-.5.18a139.1 139.1 0 0 1-4.286 0c-.491-.01-.683.143-.646.642.03.414.01.832.008 1.249-.003.687-.038.687-.675.725-.627.038-.524-.383-.527-.75-.005-.651-.011-1.303.005-1.954.01-.422-.169-.569-.578-.565a232.25 232.25 0 0 1-4.82.008c-.408-.004-.527.15-.517.54.019.705-.008 1.41.003 2.116.006.43-.152.602-.6.6-3.357-.014-6.714-.01-10.07-.001-.356 0-.57-.055-.57-.495C.886 10.193.884 5.54.876.89c-.001-.448.271-.426.572-.426 1.928.003 3.856 0 5.785 0h5.517V.462z"/>
            <path d="M25.461 13.382c1.487 0 2.974.016 4.46-.009.465-.007.64.12.634.62a290.548 290.548 0 0 0-.004 6.067c.005.505-.126.723-.672.72-2.937-.023-5.875-.02-8.812-.005-.515.002-.692-.174-.686-.707.022-2.041.013-4.083-.01-6.124-.006-.447.168-.575.575-.572 1.505.012 3.01.005 4.515.005v.005M25.455 10.582c-1.47 0-2.941-.02-4.41.012-.513.01-.683-.17-.674-.686.022-1.395.021-2.79.006-4.184-.005-.507.157-.69.676-.685 2.905.025 5.81.01 8.716.013.775 0 .782.013.783.827l.004 3.969c0 .733-.002.733-.691.733l-4.41.001M37.03 14.728c0 .582-.01 1.165.002 1.747.008.41-.11.592-.472.584a48.784 48.784 0 0 0-2.711.016c-.384.013-.51-.195-.51-.62.002-1.145.002-2.29-.006-3.435-.002-.416.135-.582.487-.574.92.023 1.84.026 2.76.003.369-.01.468.183.456.59-.016.563-.004 1.126-.004 1.69h-.003M17.587 14.733c0 .565-.016 1.131.005 1.695.016.444-.161.651-.61.648-1.152-.01-2.303-.006-3.455-.01-.389 0-.564-.208-.564-.586.002-1.17.008-2.339 0-3.508-.003-.377.177-.524.533-.524 1.191.003 2.381.004 3.572-.002.369-.002.53.165.524.533-.01.584-.002 1.17-.002 1.754h-.003M28.674 25.408h-1.333c-.323.002-.495-.134-.488-.537.015-.87.007-1.74-.001-2.61-.004-.389.174-.55.496-.552.904-.004 1.809-.004 2.713-.003.326 0 .498.17.494.552-.009.87-.018 1.74-.013 2.61.003.388-.15.548-.488.54-.46-.009-.92-.001-1.38-.001v.001M21.305 21.711c.435 0 .87.008 1.306-.004.354-.01.543.132.537.555-.013.871-.019 1.743-.004 2.614.007.372-.148.526-.455.528-.951.006-1.902.002-2.853.005-.29.001-.393-.153-.39-.465.01-.906.007-1.813-.001-2.72-.004-.393.16-.533.506-.517.45.02.902.005 1.354.004"/>
        </g>
        <path fill="#1E81DF" d="M140.918 3.225c0-.232-.007-.463.001-.694.02-.602.314-.934.901-.967.489-.027.98-.02 1.47-.003.624.023.962.376 1.002 1.011.008.135.005.27.003.405-.014.607.193 1.38-.413 1.702-.78.415-1.694.305-2.533.04-.185-.058-.343-.393-.404-.63-.07-.271-.016-.575-.016-.864h-.011"/>
    </g>
</svg>
