<svg xmlns="http://www.w3.org/2000/svg" xmlns:xlink="http://www.w3.org/1999/xlink" width="164" height="51" viewBox="0 0 164 51">
    <defs>
        <path id="a" d="M.007.047h107.976v43.935H.007z"/>
        <path id="c" d="M.007.016h155.88v4.977H.008z"/>
        <path id="e" d="M.101.091h35.887v4.902H.101z"/>
    </defs>
    <g fill="none" fill-rule="evenodd">
        <g>
            <mask id="b" fill="#fff">
                <use xlink:href="#a"/>
            </mask>
            <path fill="#1E81DF" d="M93.111 10.395v-.002c.577 0 1.155-.01 1.731.004.323.008.439-.126.436-.449-.01-1.15-.01-2.3.003-3.451.003-.333-.149-.46-.448-.461-1.135-.001-2.27-.018-3.404.02-.153.006-.421.286-.426.446-.036 1.15-.014 2.3-.018 3.451 0 .32.132.455.453.446.557-.014 1.115-.004 1.673-.004zM95.138.058h11.977c.853 0 .866.015.866.878l.002 14.31c0 .874-.001.874-.87.874H96.641c-.787 0-.81-.022-.811-.827-.001-.703-.01-1.408.01-2.11.011-.434-.176-.586-.59-.583-1.755.011-3.51.014-5.265-.003-.48-.004-.644.18-.624.662.032.742-.004 1.486.01 2.228.01.44-.15.635-.606.641-.444.007-.638-.14-.622-.604.018-.526-.042-1.057-.002-1.581.038-.48-.153-.63-.59-.628-1.524.008-3.047.004-4.571 0-.696-.002-.943-.333-.676-.992.064-.159.382-.295.586-.298 1.754-.023 3.51-.03 5.265-.004.513.007.715-.135.709-.688a295.16 295.16 0 0 1 .001-6.216c.006-.547-.162-.744-.734-.73-1.734.04-3.47.007-5.204.023-.499.004-.688-.19-.673-.698.029-.996.043-1.995.003-2.99-.021-.54.188-.669.673-.667 4.07.012 8.139.007 12.208.007V.058zM71.858 6.07c-1.369 0-2.709-.01-4.048.022-.103.002-.277.3-.286.466a27.596 27.596 0 0 0-.01 1.992c.014.581-.158 1.403.143 1.68.342.313 1.12.156 1.708.17.82.018 1.642.004 2.493.004V6.071zM67.77.058c4.069 0 8.137.008 12.206-.01.532-.002.717.17.698.709a41.526 41.526 0 0 0 0 2.931c.02.582-.204.732-.75.723-1.755-.028-3.51.009-5.264-.015-.516-.007-.68.197-.677.687.009 2.11.008 4.221-.009 6.332-.004.478.211.597.634.595 1.774-.01 3.548 0 5.322 0 .65 0 1.008.536.693 1.102-.072.13-.355.193-.542.194a150.23 150.23 0 0 1-4.628 0c-.53-.011-.738.155-.698.694.033.447.012.899.01 1.348-.004.743-.042.742-.73.784-.677.04-.566-.413-.569-.81-.006-.703-.012-1.407.005-2.11.012-.457-.182-.615-.623-.61-1.736.018-3.471.025-5.207.007-.44-.004-.568.164-.557.584.02.761-.01 1.524.002 2.285.007.465-.164.65-.648.649-3.626-.016-7.251-.01-10.876-.002-.384.001-.616-.06-.615-.535.01-5.023.008-10.046-.001-15.07-.001-.483.293-.46.618-.46 2.082.003 4.165.001 6.247 0h5.959V.058zM44.247 32.493c-.023.361-.086.726-.058 1.083.046.578-.225.708-.726.679-.558-.033-1.12-.04-1.677-.01-1.445.08-2.083.767-2.088 2.234-.008 2.072-.004 4.144-.004 6.217 0 .955 0 .956-.968.953-.598-.001-1.196-.01-1.793-.01-.424.001-.622-.167-.618-.633.02-2.228-.053-4.46.044-6.684.051-1.166.175-2.375 1.047-3.329.735-.805 1.663-1.284 2.68-1.342 2.286-.13 4.58-.122 6.87-.122.248 0 .62.26.724.496.926 2.09 1.806 4.2 2.697 6.305.141.334.273.673.483 1.191l1.351-2.797c.73-1.518 1.459-3.038 2.19-4.556.377-.78 1.039-.936 1.832-.937.761 0 1.271.363 1.566.994.754 1.617 1.451 3.261 2.18 4.89.336.754.694 1.497 1.107 2.384.468-1.032.883-1.943 1.294-2.856.707-1.57 1.401-3.147 2.132-4.706.086-.183.36-.376.556-.389.788-.05 1.58-.042 2.37-.03.153.002.305.115.486.19-1.273 2.855-2.516 5.65-3.765 8.444-.428.956-.849 1.916-1.314 2.853-.66 1.33-2.809 1.217-3.346.019-.53-1.183-1.105-2.345-1.649-3.52-.536-1.162-1.056-2.33-1.591-3.492-.05-.109-.16-.189-.243-.282-.103.098-.245.178-.303.299-1.035 2.169-2.06 4.342-3.086 6.515-.603 1.277-1.523 1.704-2.775 1.278-.749-.255-.97-.95-1.244-1.586-.782-1.816-1.55-3.639-2.326-5.457-.579-1.355-1.162-2.707-1.746-4.06-.036-.083-.085-.16-.128-.241l-.161.015M8.284 40.667v.006h3.7c.057 0 .115-.003.173-.003 1.641.014 2.101-.845 2.165-2.133.082-1.656.136-3.329-.007-4.976-.134-1.554-.286-1.958-2.064-2.16a.5.5 0 0 0-.057-.003c-2.717-.002-5.434 0-8.15-.011-.445-.002-.6.168-.598.624.016 2.695.017 5.39 0 8.086-.004.44.141.58.56.576 1.426-.016 2.852-.006 4.278-.006zM.009 35.965c0-2.307.01-4.614-.009-6.92-.003-.445.13-.663.58-.66 4.262.024 8.523.027 12.784.079 1.106.013 2.181.278 3.06 1.032.725.621 1.133 1.425 1.154 2.396.05 2.419.125 4.838.11 7.257-.005.922-.097 1.87-.638 2.693-.79 1.201-1.987 1.665-3.306 1.722-2.137.094-4.28.066-6.42.077-2.025.01-4.05.005-6.074.006-.193 0-.386-.01-.578-.004-.48.015-.675-.18-.67-.7.024-2.326.011-4.652.011-6.978H.009z" mask="url(#b)"/>
        </g>
        <path fill="#000" d="M140.566 33.918v.684c0 2.478.002 4.956-.001 7.435-.003.858-.111.957-.966.957-.598 0-1.197.004-1.795.004-.623 0-.792-.151-.794-.771-.008-2.65-.009-5.301-.01-7.952 0-2.131.002-4.263.001-6.395 0-.77.095-.872.85-.872.655 0 1.313.02 1.968-.007.558-.022.762.235.753.76-.015.806.017 1.614-.017 2.42-.022.501.145.67.66.663 1.968-.025 3.939-.063 5.905.012a14.8 14.8 0 0 1 3.286.48c1.351.367 2.07 1.4 2.342 2.753.463 2.303.126 4.632.227 6.946.017.403-.02.808.008 1.21.037.562-.247.76-.764.755-.675-.006-1.35.006-2.026-.004-.647-.01-.777-.135-.78-.785-.01-2.132-.005-4.264-.016-6.396-.003-.792-.22-1.473-1.059-1.778-.122-.045-.249-.113-.373-.114-2.43-.006-4.862-.005-7.4-.005M107.631 35.926h8.75c0-.431.002-.826 0-1.22-.003-.74-.145-.947-.902-.954-2.232-.02-4.465.005-6.697.02-.787.006-.996.491-1.136 1.068-.081.338-.015.71-.015 1.086zm-.001 2.316c0 .352-.006.615 0 .878.018.651.35 1.054 1.015 1.08 1.358.052 2.719.075 4.077.056.583-.008.81.158.749.743-.049.47-.027.95-.005 1.424.018.389-.163.588-.538.576-1.92-.06-3.87.043-5.749-.263-1.648-.268-2.748-1.1-2.997-3.143-.24-1.971-.285-3.976.126-5.955.235-1.128.963-1.847 2.026-2.187.76-.243 1.58-.416 2.376-.427 2.66-.036 5.323-.042 7.98.057 1.39.052 2.592.618 3.096 2.046.124.352.188.74.196 1.113.026 1.12-.008 2.242.018 3.362.011.506-.194.65-.69.647-3.635-.015-7.269-.007-10.903-.007h-.777z"/>
        <path fill="#1E81DF" d="M31.757 37.768c-.226-.044-.3-.07-.375-.07-2.75 0-5.5-.002-8.25.01-.584.003-.82.425-.9.941-.046.303-.037.619-.024.927.029.7.376 1.085 1.062 1.088 2.313.012 4.627.005 6.94-.014.62-.005 1.136-.303 1.292-.931.155-.621.173-1.278.255-1.95zm-.128-2.34c.14-1.266-.302-1.87-1.451-1.946-1.022-.066-2.049-.06-3.073-.049-.414.004-.596-.121-.573-.56.025-.464-.033-.935.029-1.392.023-.172.278-.447.427-.446 1.574.005 3.185-.147 4.712.145 1.999.383 3.068 1.187 3.246 3.686.124 1.744.015 3.52-.14 5.266-.143 1.603-1.524 2.785-3.257 2.815-3.281.056-6.565.09-9.844-.015-1.464-.047-2.741-.982-2.704-2.746.014-.696-.01-1.394.017-2.09.05-1.235.825-2.18 2.04-2.323a44.845 44.845 0 0 1 4.186-.28c1.878-.044 3.757-.004 5.636-.007.243 0 .487-.036.749-.058z"/>
        <path fill="#000" d="M130.715 39.977c1.504 0 3.008.02 4.51-.01.575-.01.79.202.774.726-.019.586-.007 1.173-.015 1.76-.005.363-.182.55-.586.547-3.244-.032-6.488-.04-9.732-.092-.966-.015-1.913-.193-2.757-.7-.831-.499-1.37-1.164-1.604-2.114-.429-1.747-.323-3.513-.176-5.253.177-2.1 1.121-3.353 3.615-3.602 2.43-.243 4.893-.174 7.342-.227 1.048-.022 2.097.007 3.146-.012.522-.009.764.169.734.697-.033.566-.03 1.137-.001 1.703.025.491-.17.657-.688.654-2.81-.02-5.62-.017-8.43 0-.398.002-.807.081-1.192.19-.768.215-.975.821-.996 1.497-.025.794-.007 1.59-.006 2.385.002 1.2.619 1.824 1.848 1.836 1.405.013 2.809.003 4.214.003v.012"/>
        <path fill="#1E81DF" d="M73.024 38.741c0-1.12-.058-2.246.02-3.362.053-.735.25-1.472.475-2.177.31-.97 1.064-1.533 1.967-1.784.817-.227 1.675-.387 2.518-.4 2.103-.034 4.211-.026 6.312.08 1.31.066 2.518.612 3.115 1.903.348.754.5 1.662.527 2.508.072 2.298.026 4.6.041 6.9.003.436-.186.589-.575.58-.67-.015-1.342-.041-2.012-.022-.44.013-.6-.18-.6-.613.005-1.817.013-3.634-.009-5.45a9.677 9.677 0 0 0-.166-1.72c-.145-.744-.615-1.206-1.353-1.221-1.88-.038-3.76-.028-5.639.013-.647.015-1.268.686-1.285 1.371-.052 2.144-.063 4.288-.08 6.433-.01 1.24-.002 1.238-1.205 1.215-.484-.01-.969-.02-1.453-.012-.435.008-.634-.15-.621-.646.029-1.198.009-2.397.009-3.596h.014"/>
        <path fill="#000" d="M96.53 28.007h6.698c.626.001.755.13.763.769.006.53-.017 1.06.007 1.589.025.53-.181.75-.728.743-1.626-.021-3.254.012-4.88-.02-.506-.01-.643.146-.64.642.02 3.5.01 7 .01 10.5 0 .671-.083.756-.737.762-.662.005-1.324.008-1.986.008-.691 0-.79-.089-.791-.78-.005-3.368-.005-6.736-.005-10.104 0-1.016.001-1.016-1.006-1.016-1.173 0-2.346-.008-3.52.004-.486.005-.742-.158-.713-.693.03-.566.02-1.135.003-1.703-.015-.508.211-.71.715-.708 2.27.011 4.54.005 6.81.005v.002"/>
        <path fill="#1E81DF" d="M81.498 14.011c1.606 0 3.212.016 4.817-.01.502-.008.691.13.685.669-.026 2.184-.024 4.369-.005 6.553.005.545-.136.781-.725.777a760.31 760.31 0 0 0-9.518-.005c-.556.003-.747-.188-.74-.764.023-2.204.013-4.409-.012-6.613-.005-.483.182-.621.621-.618 1.626.013 3.251.005 4.877.005v.006M81.491 10.987c-1.588 0-3.176-.022-4.763.012-.553.012-.737-.183-.728-.74.025-1.506.023-3.013.007-4.52-.006-.547.17-.744.73-.739 3.138.028 6.276.012 9.413.014.838 0 .845.014.846.893.002 1.43.004 2.858.004 4.287 0 .791-.002.792-.746.792h-4.763M71.56 36.984c0 1.744-.014 3.489.01 5.232.007.492-.18.678-.635.673-.771-.01-1.543-.017-2.314-.01-.372.004-.517-.166-.516-.533.003-3.606.002-7.212-.001-10.818 0-.33.11-.512.47-.507.81.008 1.62.002 2.43-.01.478-.007.568.268.566.683-.01 1.763-.004 3.527-.004 5.29h-.006"/>
        <path fill="#000" d="M161.355 31.245c.916-.31 2.113.128 2.441 1.197.287.936.209 2.116-.805 2.68-.304.17-.688.271-1.036.275-2.313.024-4.626.025-6.939.007-.872-.007-1.56-.371-1.88-1.256-.292-.805-.053-1.997.585-2.467.367-.27.853-.394 1.302-.52.353-.098.601.078.608.486.007.384.102.843-.456.913-.502.062-.812.294-.758.82.057.558.476.618.942.616 2.082-.01 4.164-.01 6.246 0 .414 0 .785-.033.895-.528.112-.5-.158-.718-.583-.91-.55-.247-.651-.758-.562-1.313"/>
        <path fill="#1E81DF" d="M93.992 15.464c0 .63-.01 1.258.003 1.887.008.444-.118.64-.51.631a52.687 52.687 0 0 0-2.928.017c-.415.014-.552-.21-.55-.67.001-1.236.001-2.473-.007-3.709-.003-.45.146-.63.526-.62.993.025 1.987.028 2.98.003.399-.01.505.198.493.638-.017.607-.004 1.216-.004 1.823h-.003M72.994 15.47c0 .61-.017 1.221.005 1.831.018.479-.173.703-.66.699-1.243-.01-2.486-.007-3.73-.01-.42 0-.61-.225-.609-.634.002-1.262.009-2.525 0-3.788-.003-.407.191-.566.576-.566 1.286.003 2.572.004 3.857-.002.398-.002.573.178.567.575-.011.632-.003 1.263-.003 1.895h-.003"/>
        <path fill="#000" d="M158.483 43h-4.68c-.603 0-.79-.158-.803-.653-.01-.453.249-.623.775-.621 2.68.01 5.36-.006 8.04.014.537.005.803-.1.717-.587-.026-.148-.004-.302-.002-.453.004-.665.067-.7.856-.7.44 0 .619.153.614.511-.009.622-.011 1.245 0 1.867.008.456-.257.623-.777.62-1.58-.01-3.16-.004-4.74-.004V43"/>
        <path fill="#1E81DF" d="M84.968 26.999c-.48 0-.96-.002-1.44 0-.349.002-.535-.145-.527-.58.017-.94.008-1.88 0-2.82-.005-.419.188-.594.535-.595.976-.005 1.953-.004 2.93-.004.352 0 .538.185.534.597-.01.94-.02 1.88-.014 2.82.002.417-.163.59-.527.583-.497-.01-.994-.003-1.49-.003V27M77.01 23.006c.47 0 .94.009 1.41-.004.382-.01.587.142.58.6a88.42 88.42 0 0 0-.004 2.822c.007.402-.16.569-.492.57-1.027.007-2.054.002-3.081.006-.312.001-.424-.165-.42-.502.01-.98.006-1.959-.003-2.938-.004-.424.173-.576.547-.559.487.023.975.006 1.462.005"/>
        <path fill="#000" d="M162.532 37.711v-1.25c-.003-.448.348-.462.737-.461.386 0 .732.005.725.464-.011.598.008 1.196.006 1.794-.003.652-.11.743-.863.742l-8.443-.01c-.34 0-.679-.004-1.018.001-.528.009-.68-.239-.676-.651.006-.409.143-.643.684-.64 2.555.012 5.11.009 7.665.011h1.183"/>
        <path fill="#959595" d="M157 46.156c.705-.282.832-.216 1.043.484.268.883.541 1.763.834 2.718.609-.396.59-1.083.802-1.618.166-.417.213-.887.37-1.308.066-.175.273-.36.44-.392.102-.02.31.219.368.383.247.698.447 1.414.682 2.116.096.286.238.555.36.831l.177.02c.118-.35.242-.697.35-1.05.18-.59.367-1.18.521-1.779.154-.597.498-.653 1.053-.451-.23.661-.45 1.29-.668 1.922-.288.833-.557 1.676-.877 2.495-.078.199-.331.443-.5.44-.173-.003-.408-.25-.498-.452-.231-.522-.39-1.08-.593-1.617-.096-.26-.224-.505-.414-.926-.31.902-.535 1.643-.826 2.353-.11.265-.34.58-.576.652-.407.124-.517-.28-.628-.633-.222-.705-.479-1.398-.717-2.098-.237-.696-.47-1.394-.703-2.09M132.069 47.425c-.564.773-1.032 1.414-1.574 2.154l-1.452-1.953-.15.028c-.02.288-.055.576-.059.865-.008.66-.007 1.32.002 1.98.006.318-.069.522-.414.5-.309-.02-.425-.172-.422-.513.014-1.257-.01-2.515.014-3.772.005-.223.152-.624.245-.628.293-.012.678.028.869.226.366.378.631.872.926 1.328.341.527.487.54.83.034.28-.415.578-.82.823-1.257.251-.448.645-.485.992-.344.16.065.266.486.274.75.034 1.174.021 2.349.027 3.524.002.328-.016.649-.425.65-.447.002-.38-.357-.38-.664.003-.783.006-1.566 0-2.35 0-.112-.048-.225-.126-.558M141.728 46.63c-.295.185-.775.305-.854.567-.29.957.02 1.336.936 1.337.892 0 1.29-.26 1.301-.855.013-.65-.374-.916-1.383-1.05zM144 50.84c-.507.233-.835.197-1.124-.193-.276-.373-.548-.77-.89-1.058-.225-.188-.58-.281-.864-.255-.115.01-.217.446-.284.7-.04.154.044.352-.01.494-.064.177-.214.317-.328.472-.159-.16-.442-.309-.456-.482-.054-.706-.026-1.419-.03-2.129-.003-.626-.03-1.254 0-1.879.01-.182.18-.513.268-.51.954.035 1.918.048 2.854.224.57.107.751.704.764 1.322.012.598-.093 1.119-.627 1.43-.368.215-.471.447-.11.81.293.291.524.653.837 1.055z"/>
        <path fill="#1E81DF" d="M68.008 28.478c0-.204-.006-.408 0-.611.019-.53.277-.822.794-.85.43-.025.862-.019 1.293-.003.55.02.847.33.882.89.007.118.005.237.002.356-.012.534.17 1.215-.362 1.498-.688.364-1.492.268-2.23.035-.163-.051-.302-.346-.356-.555-.06-.238-.014-.506-.014-.76h-.01"/>
        <path fill="#959595" d="M29.825 47.955c0 .506-.002 1.012 0 1.518.002.376.053.76-.01 1.123-.029.166-.265.365-.434.402-.097.02-.359-.253-.361-.399a135.206 135.206 0 0 1-.007-4.196c.001-.125.159-.361.212-.352.23.043.525.089.66.257.635.792 1.225 1.624 1.83 2.443.058.078.113.16.268.38.075-.35.155-.564.162-.781.018-.626.016-1.253.005-1.879-.006-.3.063-.47.386-.471.311 0 .468.094.464.463-.014 1.336 0 2.673-.019 4.009-.002.177-.126.352-.193.528-.203-.093-.471-.127-.597-.288-.55-.703-1.054-1.447-1.583-2.17-.163-.222-.35-.425-.527-.637l-.256.05M110.736 48.639c.334-.093.693-.132.996-.29.49-.256.546-.817.175-1.236-.282-.32-1.636-.444-1.96-.171a.56.56 0 0 0-.163.243c-.289.886.037 1.363.952 1.454zm1.016.651L113 50.797c-.415.296-.768.265-1.077-.071-.34-.37-.614-.817-.99-1.135-.223-.188-.597-.272-.884-.238-.121.015-.22.45-.283.705-.042.174.047.392-.017.548-.06.15-.247.344-.37.338-.131-.006-.36-.223-.362-.352-.024-1.403-.024-2.807.008-4.21.003-.129.265-.351.414-.359a18.222 18.222 0 0 1 2.006.01c.753.045 1.281.52 1.451 1.225.18.744-.038 1.297-.71 1.782-.13.094-.277.16-.434.25z"/>
        <g transform="translate(0 46)">
            <mask id="d" fill="#fff">
                <use xlink:href="#c"/>
            </mask>
            <path fill="#959595" d="M47.365 2.473c0-.6.014-1.2-.005-1.8-.012-.376.128-.515.505-.506.809.02 1.619.003 2.428.006.292.001.633-.02.614.411-.018.41-.355.398-.646.4-.462.004-.925 0-1.387-.012-.378-.01-.685.006-.68.535.005.503.196.697.692.662.46-.032.925-.001 1.387-.022.317-.014.522.125.456.423-.031.144-.29.317-.46.335-.438.045-.885.02-1.328.006-.417-.013-.755-.01-.746.585.007.557.279.636.73.612.481-.026.968-.04 1.444.013.19.02.358.235.535.36-.184.12-.363.335-.551.344-.827.038-1.657.01-2.486.02-.362.004-.516-.122-.497-.514.031-.618.008-1.239.008-1.858h-.013M104.209 2.558c.001 1.056.565 1.651 1.572 1.658 1.007.008 1.584-.585 1.593-1.637.01-1.066-.65-1.814-1.599-1.815-.879-.002-1.568.788-1.566 1.794zm3.973-.036c0 1.49-.934 2.456-2.387 2.472-1.391.016-2.422-1.01-2.42-2.406 0-1.502 1.027-2.53 2.505-2.51 1.368.02 2.302 1.011 2.302 2.444zM147.847 2.564c.066-.004.284.015.487-.029.671-.142.95-.843.53-1.308-.274-.304-1.607-.44-1.923-.187a.51.51 0 0 0-.157.232c-.282.852.038 1.299 1.063 1.292zm.925.776l1.172 1.355c-.457.199-.82.235-1.148-.167-.279-.343-.542-.716-.883-.985-.223-.177-.58-.263-.864-.24-.112.008-.211.422-.278.662-.086.309.227.844-.376.85-.611.005-.36-.544-.368-.848-.032-1.102.004-2.205-.01-3.307-.004-.343.093-.503.452-.493.655.02 1.31-.002 1.964.028.717.033 1.186.456 1.373 1.185.175.681-.047 1.206-.67 1.619-.133.089-.238.222-.364.341zM155.061 2.552c.015-1-.663-1.777-1.56-1.791-.896-.014-1.627.787-1.634 1.793-.008 1.032.573 1.647 1.57 1.66 1.022.015 1.61-.586 1.624-1.662zm.827-.011c-.019 1.444-1.035 2.47-2.434 2.459-1.43-.012-2.412-1.04-2.383-2.493.03-1.46 1.043-2.465 2.45-2.43 1.373.033 2.383 1.085 2.367 2.464zM69.73 2.522c.005 1.114.55 1.698 1.582 1.695 1.006-.002 1.61-.642 1.602-1.7-.006-.986-.7-1.766-1.607-1.746-.747.016-1.668.606-1.577 1.751zm-.798.032c0-1.496.957-2.483 2.386-2.471 1.47.011 2.39 1.044 2.413 2.471.022 1.386-1.061 2.447-2.449 2.442-1.416-.005-2.35-.976-2.35-2.442zM81.891 4.219c1.04-.007 1.66-.657 1.651-1.736-.008-.958-.741-1.717-1.659-1.716-.849.002-1.686.909-1.603 1.846.082.926.615 1.614 1.611 1.606zm2.385-1.605c.023 1.649-1.124 2.384-2.45 2.378-1.383-.005-2.381-1.114-2.327-2.493C79.558 1 80.565.047 82.034.098c1.442.05 2.293 1.005 2.242 2.516zM13.069 4.22c.95.007 1.65-.671 1.673-1.62.022-.945-.763-1.825-1.64-1.838-.861-.013-1.679.81-1.657 1.744.023.98.59 1.737 1.624 1.714zm-2.367-1.704c.025-1.483.985-2.442 2.43-2.428 1.384.014 2.398 1.059 2.376 2.447-.023 1.439-1.051 2.513-2.435 2.457-1.414-.056-2.423-.91-2.37-2.476zM124.106 4.212c1.023-.002 1.653-.648 1.66-1.664.007-1.128-.855-1.744-1.61-1.779-.896-.042-1.657.81-1.662 1.787-.005.976.66 1.659 1.612 1.656zm-2.379-1.619c-.03-1.451.915-2.462 2.35-2.513 1.341-.047 2.416.95 2.467 2.288.057 1.5-.947 2.633-2.37 2.627-1.415-.007-2.487-.943-2.447-2.402zM138.416 2.538c.002-1.016-.715-1.785-1.654-1.774-.857.009-1.58.803-1.582 1.738-.003 1.056.613 1.716 1.601 1.716 1.02 0 1.633-.63 1.635-1.68zm.806-.035c-.012 1.506-1.038 2.558-2.506 2.485-1.48-.073-2.321-.982-2.335-2.462-.014-1.432 1.035-2.44 2.444-2.433 1.387.009 2.408 1.035 2.397 2.41zM.005 2.51c0-.619.01-1.238-.004-1.857-.007-.334.09-.494.46-.485C1.307.19 2.156.156 3 .19c.171.007.45.193.477.335.064.332-.184.463-.504.457C2.434.972 1.895.98 1.356.967.96.957.814 1.134.817 1.53c.003.387.074.642.533.629.52-.016 1.04.013 1.56-.002.316-.01.522.124.447.426-.035.143-.292.313-.46.326-.516.041-1.039.025-1.558.006-.48-.017-.529.297-.52.648.008.355.139.571.563.545.557-.034 1.12-.035 1.674.015.166.015.314.244.47.375-.151.112-.3.314-.455.32-.885.034-1.771.018-2.657.026-.332.003-.422-.167-.414-.476.017-.619.006-1.238.005-1.857M64.339 2.057c0 .734-.002 1.468 0 2.201.001.279.029.573-.376.578-.435.005-.413-.309-.413-.608.001-1.143-.01-2.287.01-3.43.004-.202.13-.403.2-.605.235.095.543.125.693.296.558.636 1.06 1.324 1.596 1.98.12.146.3.243.59.47 0-.866.003-1.554-.002-2.243-.002-.269.005-.518.37-.523.366-.006.38.239.38.51-.004 1.201.007 2.402-.015 3.603-.003.175-.152.348-.233.522-.168-.104-.38-.172-.497-.317-.582-.72-1.134-1.464-1.71-2.188-.115-.143-.29-.238-.438-.355l-.155.11M38.946 3.23c-.001 1.14-.24 1.424-1.436 1.703-1.034.242-2.222-.265-2.677-1.143-.518-1-.251-2.493.573-3.204.766-.663 2.13-.74 2.956-.143.116.083.148.285.218.431-.177.07-.364.214-.529.192-.215-.028-.403-.221-.62-.285-.618-.182-1.446.187-1.786.768-.471.804-.419 1.574.15 2.195.407.445 1.45.619 1.993.341.345-.177.43-.457.379-.82-.058-.407-.365-.309-.619-.343-.243-.033-.636.073-.576-.343.022-.147.366-.268.581-.357.114-.047.266.002.4.004.994.019.994.018.993 1.004M89.67.637c-.11.505-.397.54-.78.364-.886-.409-1.54-.306-2.08.324-.531.621-.569 1.627-.087 2.327.42.61 1.794.785 2.29.247.15-.161.18-.494.148-.733-.014-.1-.321-.181-.506-.233-.125-.036-.29.039-.397-.015-.124-.064-.283-.216-.281-.327.002-.124.16-.343.263-.35a8.105 8.105 0 0 1 1.384.007c.117.011.282.209.312.345.344 1.584-.598 2.586-2.214 2.374-1.232-.161-1.874-.758-2.107-1.96-.191-.98.377-2.29 1.255-2.71.678-.325 1.724-.533 2.8.34" mask="url(#d)"/>
        </g>
        <path fill="#959595" d="M61.993 48.502c0 .663.024 1.327-.016 1.986-.011.178-.219.342-.336.512-.141-.172-.393-.334-.406-.517-.112-1.512-.098-1.513-1.503-1.52-.917-.005-.917-.005-.92.998 0 .207.05.436-.016.615-.062.167-.243.382-.381.39-.131.007-.39-.224-.393-.355-.03-1.406-.028-2.814-.004-4.22.002-.13.25-.382.321-.359.175.058.418.223.446.382.066.38.032.783.024 1.175-.008.417.174.613.557.608.077-.001.154.012.23.01 1.5-.05 1.722.3 1.592-1.616-.025-.381.079-.599.463-.59.386.007.34.313.342.577.004.641.001 1.283 0 1.924M7.572 49.827c.425-1.111.81-2.06 1.148-3.025.268-.769.463-.906 1.28-.68l-1.445 3.455c-.16.381-.27.794-.497 1.131-.117.175-.441.3-.667.292-.2-.007-.49-.184-.57-.362-.598-1.336-1.155-2.69-1.72-4.042-.054-.13-.069-.276-.101-.41.586-.318.81-.24 1.037.33.336.844.666 1.691 1.021 2.527.1.234.28.433.514.784"/>
        <g transform="translate(21 46)">
            <mask id="f" fill="#fff">
                <use xlink:href="#e"/>
            </mask>
            <path fill="#959595" d="M4.78.272C4.173 1.74 3.608 3.15 2.996 4.538c-.074.167-.4.3-.613.304-.176.004-.448-.164-.52-.325C1.255 3.145.683 1.757.101.379.668.03.917.12 1.151.735c.337.88.669 1.763 1.006 2.644.032.084.089.16.188.336.165-.202.334-.333.401-.504.346-.877.673-1.763.992-2.65.19-.527.555-.415 1.041-.289M35.988 4.34c-.885.837-1.963.772-2.913.36-.654-.282-1.282-1.05-1.23-2.303.08-1.945 2.092-2.784 3.59-2.033.188.094.433.431.386.562-.12.337-.445.29-.72.124-.488-.297-.964-.315-1.483-.052-.888.45-1.25 1.454-.814 2.358.357.741 1.467 1.11 2.268.696.437-.226.716-.225.916.288" mask="url(#f)"/>
        </g>
        <path fill="#959595" d="M99.011 48.46c0-.666-.023-1.334.017-1.996.01-.16.223-.423.351-.43a20.29 20.29 0 0 1 2.234-.006c.134.007.258.27.387.414-.132.138-.256.38-.398.396-.464.052-.935.041-1.402.02-.427-.021-.474.277-.472.679.002.387-.046.787.429.792.398.005.796.011 1.195.01.25-.001.56-.013.5.396-.023.162-.337.337-.535.372-.357.062-.726.028-1.09.026-.34-.002-.52.168-.498.602.01.227-.02.459-.005.686.023.345-.054.573-.38.579-.37.007-.344-.305-.343-.605.002-.645 0-1.29 0-1.935h.01M91 46.107c.526-.208.863-.118 1.095.402.172.386.384.745.57 1.122.198.404.38.414.601.009.22-.402.426-.814.64-1.22.248-.468.596-.488 1.094-.333-.376.648-.67 1.26-1.05 1.783-.543.747-.75 1.574-.668 2.535.025.29.037.669-.335.583-.136-.032-.34-.387-.313-.55.23-1.444-.586-2.378-1.143-3.439-.147-.28-.303-.551-.491-.892M43.584 48.896c-.001-.5-.013-.999.002-1.498.013-.453-.176-.653-.612-.623-.2.013-.418.04-.595-.028-.15-.059-.255-.246-.379-.376.126-.122.25-.348.379-.35a68.25 68.25 0 0 1 3.304-.001c.116.002.312.208.317.326.005.128-.167.267-.27.393-.02.024-.077.013-.117.019-1.183.179-1.184.179-1.185 1.42 0 .707 0 1.414.005 2.122.002.336.055.714-.437.7-.491-.015-.41-.404-.412-.73v-1.374M119.03 46.025c.506 0 1.014-.028 1.517.016.16.014.302.22.453.34-.145.131-.278.358-.436.38-1.173.154-1.177.141-1.18 1.325-.004.784.025 1.57-.017 2.351-.011.194-.244.376-.374.563-.138-.182-.387-.36-.395-.547-.04-.969-.039-1.94-.011-2.91.017-.57-.214-.767-.754-.771-.313-.003-.86.203-.832-.393.026-.577.555-.315.875-.346.38-.037.768-.009 1.153-.008M17.014 48.504c0-.683.006-1.365-.003-2.048-.003-.298.064-.468.355-.455.284.012.408.142.404.49-.01.952-.003 1.904 0 2.856.002.877.01.886.77.893.35.004.705-.04 1.051.01.146.02.273.224.409.344-.14.136-.276.382-.421.389-.736.036-1.474.003-2.212.01-.27.002-.374-.116-.367-.44.015-.683.005-1.366.005-2.05h.009M75.008 48.485c0-.663.007-1.326-.002-1.989-.006-.335.115-.561.393-.479.135.04.308.31.313.481.028 1.015.022 2.032.005 3.047-.009.494.138.727.58.698.44-.028.885-.036 1.322.011.135.015.254.238.381.366-.13.124-.256.348-.39.355-.722.037-1.446.023-2.17.02-.323-.002-.46-.168-.438-.583.035-.64.01-1.284.01-1.927h-.004M27.012 48.473c0-.665.009-1.33-.005-1.995-.006-.287.048-.547.435-.462.207.046.517.263.522.41.044 1.37.048 2.742.012 4.113-.004.157-.318.307-.489.461-.16-.156-.444-.305-.456-.47-.052-.684-.022-1.371-.022-2.057h.003"/>
    </g>
</svg>
