<svg xmlns="http://www.w3.org/2000/svg" width="34" height="34" viewBox="0 0 34 34">
    <path fill="#00A5FF" fill-rule="evenodd" d="M22.903 30.606c1.274-1.768 2.289-4.138 2.914-6.925 2.096.24 3.414.52 4.08.687a14.956 14.956 0 0 1-6.994 6.238zM4.055 24.273c.77-.164 2.15-.411 4.19-.625.802 2.963 2.107 5.467 3.669 7.267a14.94 14.94 0 0 1-7.86-6.642zm-1.248-11.77c.406.11 1.956.492 4.827.81a26.234 26.234 0 0 0-.26 3.658c0 1.602.154 3.139.415 4.598-2.463.265-3.98.58-4.66.746a14.746 14.746 0 0 1-1.012-5.344c0-1.557.244-3.058.69-4.468zm9.107-9.477c-1.722 1.985-3.122 4.835-3.89 8.2-2.389-.259-3.831-.561-4.413-.7a14.936 14.936 0 0 1 8.303-7.5zM30.34 10.41c-.332.102-1.677.476-4.34.791-.6-3.188-1.684-5.904-3.098-7.866a14.945 14.945 0 0 1 7.438 7.075zM18.029 21.132v-7.366a85.291 85.291 0 0 0 6.164-.263c.14 1.118.223 2.277.223 3.468 0 1.53-.124 3.012-.35 4.415a85.96 85.96 0 0 0-6.037-.254zm0 10.533v-8.42a84.14 84.14 0 0 1 5.601.228c-1.082 4.308-3.176 7.489-5.6 8.192zm-2.117-8.42v8.39c-2.398-.762-4.505-3.916-5.605-8.168 1.581-.116 3.445-.2 5.605-.221zm0-20.938v9.346a89.117 89.117 0 0 1-5.833-.238c1.018-4.724 3.261-8.291 5.833-9.108zm2.117-.03c2.599.754 4.824 4.351 5.823 9.134-1.603.128-3.533.22-5.823.242V2.276zM9.496 16.97c0-1.19.086-2.345.23-3.462a90.6 90.6 0 0 0 6.186.257v7.366a91.484 91.484 0 0 0-6.055.247c-.233-1.4-.361-2.88-.361-4.408zm21.339 5.461c-.584-.17-2.055-.535-4.64-.839a31.812 31.812 0 0 0 .127-8.303c3.274-.393 4.722-.884 4.818-.918l-.344-.969a14.725 14.725 0 0 1 1.095 5.568c0 1.93-.383 3.767-1.056 5.461zm3.173-5.46c0-9.012-7.077-16.383-15.972-16.92-.19-.02-.376-.052-.568-.052-.056 0-.111.013-.165.015-.101-.002-.199-.015-.3-.015C7.629 0 0 7.613 0 16.971s7.628 16.97 17.004 16.97c.1 0 .198-.013.299-.015.054.002.109.016.165.016.192 0 .379-.032.568-.052 8.895-.538 15.972-7.909 15.972-16.919z"/>
</svg>
