<svg xmlns="http://www.w3.org/2000/svg" width="35" height="35" viewBox="0 0 35 35">
    <path fill="#00A5FF" fill-rule="evenodd" d="M30.077 16.918l-.395.461c-1.186 1.204-2.74 1.781-4.372 1.781-.807 0-1.897-.152-2.63-.458a6.375 6.375 0 0 1-1.834-1.176L7.226 31.261c-.4.405-.93.628-1.495.628a2.09 2.09 0 0 1-1.497-.628l-1.496-1.518a2.17 2.17 0 0 1-.002-3.036l13.31-13.576a6.373 6.373 0 0 1-.932-2.091c-.513-2.072-.214-4.936 1.394-6.578l.459-.46c1.379-1.401 4.962-1.815 6.946-1.937l-3.898 4.5c-.347.403-.33 1.01.04 1.391l6.162 6.32a.998.998 0 0 0 1.38.05l4.337-3.906c-.13 2.104-.537 5.16-1.857 6.498m3.343-9.731a1.002 1.002 0 0 0-1.08.16l-5.357 4.812-4.836-4.961 4.788-5.53c.26-.3.324-.715.161-1.08A.993.993 0 0 0 26.183 0h-.29c-2.958 0-8.067.254-10.348 2.568l-.46.456c-2.432 2.483-2.866 6.555-1.583 9.65L1.239 25.19a4.337 4.337 0 0 0 0 6.071l1.497 1.516a4.19 4.19 0 0 0 5.987 0l12.444-12.541c1.176.635 2.79 1.05 4.143 1.05 2.171 0 4.23-.875 5.797-2.465l.452-.46c2.478-2.512 2.439-7.88 2.45-10.241a1.023 1.023 0 0 0-.59-.933"/>
</svg>
