<svg xmlns="http://www.w3.org/2000/svg" width="34" height="34" viewBox="0 0 34 34">
    <path fill="#00A5FF" fill-rule="evenodd" d="M23.785 10.78l-9.974 10.036-4.493-4.491a1.061 1.061 0 1 0-1.502 1.502l5.26 5.26a1.061 1.061 0 0 0 1.502 0c.023-.025.033-.057.054-.082l10.656-10.723a1.061 1.061 0 1 0-1.503-1.502M17 31.908C8.798 31.908 2.125 25.202 2.125 17 2.125 8.798 8.798 2.124 17 2.124S31.875 8.798 31.875 17c0 8.203-6.673 14.91-14.875 14.91m0-31.91C7.61 0 0 7.611 0 17c0 9.39 7.61 17 17 17s17-7.61 17-17c0-9.388-7.61-17-17-17"/>
</svg>
